<svg xmlns="http://www.w3.org/2000/svg" version="1.1" xmlns:xlink="http://www.w3.org/1999/xlink" xmlns:svgjs="http://svgjs.dev/svgjs" width="2000" height="474" viewBox="0 0 2000 474"><g transform="matrix(1,0,0,1,-1.2121212121212466,0.6171081693970564)"><svg viewBox="0 0 396 94" data-background-color="#ffffff" preserveAspectRatio="xMidYMid meet" height="474" width="2000" xmlns="http://www.w3.org/2000/svg" xmlns:xlink="http://www.w3.org/1999/xlink"><g id="tight-bounds" transform="matrix(1,0,0,1,0.2400000000000091,-0.1223801011040564)"><svg viewBox="0 0 395.52 94.24458841224" height="94.24458841224" width="395.52"><g><svg viewBox="0 0 548.5590351026087 130.71076173913045" height="94.24458841224" width="395.52"><g transform="matrix(1,0,0,1,153.0390351026087,18.06494608695653)"><svg viewBox="0 0 395.52 94.58086956521738" height="94.58086956521738" width="395.52"><g id="textblocktransform"><svg viewBox="0 0 395.52 94.58086956521738" height="94.58086956521738" width="395.52" id="textblock"><g><svg viewBox="0 0 395.52 94.58086956521738" height="94.58086956521738" width="395.52"><g transform="matrix(1,0,0,1,0,0)"><svg width="395.52" viewBox="1.5 -35 149.49 35.75" height="94.58086956521738" data-palette-color="#919591"><path d="M22.25 0.5L7-28.75 7-2.25 11-0.75 11 0 1.5 0 1.5-0.75 5.5-2.25 5.5-33.5 2.5-34.25 2.5-35 8.75-35Q11.35-35 12.88-33.93 14.4-32.85 15.5-30.75L15.5-30.75 26.4-9.9 34.75-30.75Q35.6-32.95 37.05-33.98 38.5-35 41.5-35L41.5-35 46.75-35 46.75-34.25 43.75-33.5 43.75-1.5 46.75-0.75 46.75 0 32.5 0 32.5-0.75 35.5-1.5 35.5-28.75 23.75 0.5 22.25 0.5ZM64.5 0.75Q58.3 0.75 54.77-2.78 51.25-6.3 51.25-12.5L51.25-12.5Q51.25-18.7 54.77-22.23 58.3-25.75 64.5-25.75L64.5-25.75Q70.7-25.75 74.22-22.23 77.75-18.7 77.75-12.5L77.75-12.5Q77.75-6.3 74.22-2.78 70.7 0.75 64.5 0.75L64.5 0.75ZM64.5-0.25Q66.5-0.25 67.87-3.05 69.25-5.85 69.25-12.5L69.25-12.5Q69.25-19.15 67.87-21.95 66.5-24.75 64.5-24.75L64.5-24.75Q62.5-24.75 61.12-21.95 59.75-19.15 59.75-12.5L59.75-12.5Q59.75-5.85 61.12-3.05 62.5-0.25 64.5-0.25L64.5-0.25ZM93.75 0.5L81.25-23.5 78.75-24.25 78.75-25 85-25Q87.59-25 89.12-23.93 90.65-22.85 91.75-20.75L91.75-20.75 97.7-9.2 103.25-22.75 99.5-24.25 99.5-25 108.75-25 108.75-24.25 104.75-22.75 95.25 0.5 93.75 0.5ZM109.74 0L109.74-0.75 112.74-1.5 112.74-23.5 109.74-24.25 109.74-25 116.24-25Q120.74-25 120.74-20.5L120.74-20.5 120.74-1.5 123.74-0.75 123.74 0 109.74 0ZM116.24-28Q114.74-28 113.74-29 112.74-30 112.74-31.5L112.74-31.5Q112.74-33 113.74-34 114.74-35 116.24-35L116.24-35Q117.74-35 118.74-34 119.74-33 119.74-31.5L119.74-31.5Q119.74-30 118.74-29 117.74-28 116.24-28L116.24-28ZM140.24 0.75Q133.84 0.75 130.29-2.78 126.74-6.3 126.74-12.5L126.74-12.5Q126.74-16.55 128.29-19.55 129.84-22.55 132.62-24.15 135.39-25.75 138.99-25.75L138.99-25.75Q142.59-25.75 145.31-24.4 148.04-23.05 149.52-20.78 150.99-18.5 150.99-15.75L150.99-15.75Q150.99-14.5 150.74-13.6L150.74-13.6 150.49-12.75Q148.34-12.3 145.84-12L145.84-12Q140.59-11.25 135.24-11.25L135.24-11.25Q135.24-5.45 136.84-2.98 138.44-0.5 141.24-0.5L141.24-0.5Q143.19-0.5 144.87-1.43 146.54-2.35 147.52-3.88 148.49-5.4 148.49-7L148.49-7 149.74-7Q149.74-5 148.54-3.2 147.34-1.4 145.19-0.33 143.04 0.75 140.24 0.75L140.24 0.75ZM135.24-12.5Q138.44-12.5 140.44-12.75L140.44-12.75Q141.29-12.8 142.24-13L142.24-13Q142.29-13.25 142.49-14.1L142.49-14.1Q142.74-15.35 142.74-16.75L142.74-16.75Q142.74-20.9 141.64-22.83 140.54-24.75 138.99-24.75L138.99-24.75Q135.24-24.75 135.24-12.5L135.24-12.5Z" opacity="1" transform="matrix(1,0,0,1,0,0)" fill="#919591" class="wordmark-text-0" data-fill-palette-color="primary" id="text-0"></path></svg></g></svg></g></svg></g></svg></g><g><svg viewBox="0 0 130.71076173913042 130.71076173913045" height="130.71076173913045" width="130.71076173913042"><g><svg></svg></g><g id="icon-0"><svg viewBox="0 0 130.71076173913042 130.71076173913045" height="130.71076173913045" width="130.71076173913042"><g><path transform="scale(1.30711,1.30711)" d="M30 100c-16.569 0-30-13.431-30-30v-40c0-16.569 13.431-30 30-30h40c16.569 0 30 13.431 30 30v40c0 16.569-13.431 30-30 30z" fill="#636365" fill-rule="nonzero" stroke="none" stroke-width="1" stroke-linecap="butt" stroke-linejoin="miter" stroke-miterlimit="10" stroke-dasharray="" stroke-dashoffset="0" font-family="none" font-weight="none" font-size="none" text-anchor="none" style="mix-blend-mode: normal" data-fill-palette-color="accent"></path></g><g transform="matrix(1,0,0,1,27.430456532901914,26.14215234782609)"><svg viewBox="0 0 75.84984867332659 78.42645704347827" height="78.42645704347827" width="75.84984867332659"><g><svg xmlns="http://www.w3.org/2000/svg" xmlns:xlink="http://www.w3.org/1999/xlink" version="1.1" x="0" y="0" viewBox="7.487339512935998 6.066 84.025660487064 86.88" enable-background="new 0 0 100 100" xml:space="preserve" height="78.42645704347827" width="75.84984867332659" class="icon-cg-0" data-fill-palette-color="quaternary" id="cg-0"><rect x="34.571" y="16.321" fill="#ffffff" width="5.716" height="5.716" data-fill-palette-color="quaternary"></rect><rect x="34.571" y="28.368" fill="#ffffff" width="5.716" height="5.716" data-fill-palette-color="quaternary"></rect><rect x="34.571" y="40.416" fill="#ffffff" width="5.716" height="5.716" data-fill-palette-color="quaternary"></rect><rect x="34.571" y="52.464" fill="#ffffff" width="5.716" height="5.716" data-fill-palette-color="quaternary"></rect><rect x="80.349" y="16.321" fill="#ffffff" width="5.716" height="5.716" data-fill-palette-color="quaternary"></rect><rect x="80.349" y="28.368" fill="#ffffff" width="5.716" height="5.716" data-fill-palette-color="quaternary"></rect><rect x="80.349" y="40.416" fill="#ffffff" width="5.716" height="5.716" data-fill-palette-color="quaternary"></rect><rect x="80.349" y="52.464" fill="#ffffff" width="5.716" height="5.716" data-fill-palette-color="quaternary"></rect><path fill="#ffffff" d="M52.324 50.356c-0.188 0-0.375-0.048-0.546-0.142-0.354-0.199-0.572-0.572-0.572-0.975V26.271c0-0.404 0.218-0.777 0.572-0.975 0.354-0.194 0.786-0.19 1.13 0.024l18.704 11.483c0.332 0.203 0.532 0.563 0.532 0.951 0 0.389-0.201 0.749-0.532 0.951L52.909 50.19C52.73 50.301 52.527 50.356 52.324 50.356zM53.442 28.268v18.974l15.45-9.488L53.442 28.268z" data-fill-palette-color="quaternary"></path><path fill="#ffffff" d="M81.978 8.301c4.025 0 7.3 3.275 7.3 7.3V59.3c0 4.025-3.275 7.3-7.3 7.3H38.279c-4.025 0-7.3-3.275-7.3-7.3V15.601c0-4.025 3.275-7.3 7.3-7.3H81.978M81.978 6.066H38.279c-5.266 0-9.535 4.269-9.535 9.535V59.3c0 5.266 4.269 9.535 9.535 9.535h43.699c5.266 0 9.535-4.269 9.535-9.535V15.601C91.512 10.335 87.243 6.066 81.978 6.066L81.978 6.066z" data-fill-palette-color="quaternary"></path><path fill="#ffffff" d="M74.63 71.069h-2.299l0.225 0.924c0.478 1.957 0.164 3.985-0.884 5.706-1.048 1.722-2.704 2.931-4.661 3.409l-38.573 9.386c-1.953 0.474-3.98 0.164-5.706-0.886-1.722-1.047-2.931-2.704-3.409-4.661l-9.383-38.57c-0.478-1.957-0.161-3.985 0.886-5.706 1.047-1.722 2.704-2.931 4.661-3.409l11.023-2.682V32.28l-11.551 2.809c-2.538 0.618-4.683 2.187-6.043 4.419-1.357 2.23-1.765 4.858-1.148 7.396l9.386 38.57c0.615 2.538 2.184 4.683 4.417 6.043 1.552 0.943 3.293 1.429 5.065 1.429 0.775 0 1.558-0.094 2.331-0.284l38.573-9.386c2.538-0.615 4.683-2.184 6.04-4.417 1.36-2.23 1.765-4.858 1.148-7.396L74.63 71.069z" data-fill-palette-color="quaternary"></path></svg></g></svg></g></svg></g></svg></g></svg></g><defs></defs></svg><rect width="395.52" height="94.24458841224" fill="none" stroke="none" visibility="hidden"></rect></g></svg></g></svg>